<svg xmlns="http://www.w3.org/2000/svg" width="22" height="22" fill="none"><g fill="#fff" clip-path="url(#a)"><path d="M15.99 2.055A7.026 7.026 0 0 0 10.954 0a7.037 7.037 0 0 0-4.896 2.026 7.03 7.03 0 0 0-2.126 4.852 7.027 7.027 0 0 0 1.973 5.1 5.823 5.823 0 0 1 1.617 4.06v2.951a1.291 1.291 0 0 0 .985 1.253v.394A1.366 1.366 0 0 0 9.872 22h2.256a1.366 1.366 0 0 0 1.364-1.364v-.391a1.291 1.291 0 0 0 .996-1.256v-2.95c0-1.514.59-2.973 1.661-4.108a7.046 7.046 0 0 0 1.93-4.856 7.025 7.025 0 0 0-2.09-5.02Zm-3.357 18.581a.505.505 0 0 1-.505.505H9.872a.505.505 0 0 1-.505-.505v-.357h3.266v.357Zm.995-1.646a.43.43 0 0 1-.43.429H8.813a.43.43 0 0 1-.43-.43v-2.443h5.247v2.444Zm-3.298-3.303V10.25h1.339v5.436H10.33Zm5.194-4.345c-1.14 1.206-1.802 2.737-1.886 4.345h-1.11V10.25h.387a1.247 1.247 0 0 0 1.246-1.245v-.067a1.247 1.247 0 0 0-2.127-.88c-.233.233-.364.55-.365.88v.453h-1.338V8.94a1.247 1.247 0 0 0-1.246-1.245H9a1.247 1.247 0 0 0-1.246 1.245v.067c0 .687.56 1.245 1.246 1.245h.471v5.436H8.373a6.662 6.662 0 0 0-1.848-4.304 6.174 6.174 0 0 1-1.732-4.481C4.882 3.594 7.648.882 10.96.86a6.17 6.17 0 0 1 4.424 1.804 6.172 6.172 0 0 1 1.836 4.41 6.188 6.188 0 0 1-1.696 4.268Zm-2.996-1.95V8.94a.387.387 0 0 1 .773 0v.067a.387.387 0 0 1-.387.386h-.386ZM9.47 8.94v.453H9a.387.387 0 0 1-.386-.386v-.067c0-.213.173-.386.386-.386h.084c.213 0 .386.173.386.386h.001Z"/><path d="M15.61 5.215c-.367-.915-.999-1.7-1.814-2.255a4.955 4.955 0 0 0-2.842-.865.43.43 0 0 0 .003.86h.033a4.1 4.1 0 0 1 3.824 2.581.43.43 0 1 0 .797-.32Zm.234 1.555a.433.433 0 0 0-.304-.125.43.43 0 0 0-.304.733.43.43 0 0 0 .607-.608Zm4.112-4.63a.43.43 0 0 0-.608 0l-.8.801a.43.43 0 1 0 .607.608l.8-.8a.43.43 0 0 0 0-.609h.001Zm0 9.262-.8-.8a.43.43 0 0 0-.609.607l.8.8a.429.429 0 0 0 .609 0 .43.43 0 0 0 0-.607Zm1.614-4.757H20.44a.43.43 0 0 0 0 .859h1.131a.43.43 0 1 0 0-.86ZM3.452 2.94l-.8-.8a.43.43 0 0 0-.608.608l.8.8a.428.428 0 0 0 .609 0 .43.43 0 0 0 0-.608Zm0 7.66a.43.43 0 0 0-.608 0l-.8.8a.43.43 0 1 0 .608.609l.8-.801a.43.43 0 0 0 0-.608Zm-1.89-3.956H.43a.43.43 0 0 0 0 .859h1.132a.43.43 0 0 0 0-.86Z"/></g><defs><clipPath id="a"><path fill="#fff" d="M0 0h22v22H0z"/></clipPath></defs></svg>
